# xmcd
#
# Track frame offsets: 
#        150
#        18742
#        48300
#
# Disc length: 898 seconds
#
# Revision: 9
# Processed by: cddbd v1.5.2PL0 Copyright (c) Steve Scherf et al.
# Submitted via: ExactAudioCopy v0.99pb5
#
DISCID=1f038003
DTITLE=Centory - Take It To The Limit
DYEAR=1994
DGENRE=Eurodance
TTITLE0=Take It To The Limit (Radio Version)
TTITLE1=Take It To The Limit (Extended Club Mix)
TTITLE2=Merry, Merry X-Mas
EXTD=A&M Records\nYear: 1999\nCatalog Number: 497 152-2\nImport\nProdu
EXTD=ced by: Sting and Kipper\n YEAR: 1994
EXTT0=
EXTT1=
EXTT2=
PLAYORDER=
